<?xml version="1.0" encoding="UTF-8"?>
<!DOCTYPE svg PUBLIC "-//W3C//DTD SVG 1.1//EN" "http://www.w3.org/Graphics/SVG/1.1/DTD/svg11.dtd">
<svg xmlns="http://www.w3.org/2000/svg" version="1.1" width="773px" height="323px" style="shape-rendering:geometricPrecision; text-rendering:geometricPrecision; image-rendering:optimizeQuality; fill-rule:evenodd; clip-rule:evenodd" xmlns:xlink="http://www.w3.org/1999/xlink">
<g><path style="opacity:1" fill="#93dcc9" d="M 454.5,35.5 C 404.833,35.5 355.167,35.5 305.5,35.5C 304.501,122.332 304.167,209.332 304.5,296.5C 297.833,296.5 291.167,296.5 284.5,296.5C 283.168,204.332 283.168,111.999 284.5,19.5C 335.459,18.3381 386.459,18.1714 437.5,19C 443.67,24.0039 449.337,29.5039 454.5,35.5 Z"/></g>
<g><path style="opacity:0.999" fill="#0a0e0d" d="M 454.5,35.5 C 456.857,35.3367 459.19,35.5034 461.5,36C 484.027,58.527 506.527,81.027 529,103.5C 529.5,172.833 529.667,242.166 529.5,311.5C 454.833,311.5 380.167,311.5 305.5,311.5C 305.5,310.167 305.5,308.833 305.5,307.5C 305.5,303.833 305.5,300.167 305.5,296.5C 306.499,210.002 306.833,123.335 306.5,36.5C 356.003,36.8322 405.336,36.4989 454.5,35.5 Z"/></g>
<g><path style="opacity:1" fill="#96d1c2" d="M 305.5,35.5 C 305.5,122.5 305.5,209.5 305.5,296.5C 305.5,300.167 305.5,303.833 305.5,307.5C 304.521,304.375 304.187,301.042 304.5,297.5C 297.646,297.824 290.979,297.491 284.5,296.5C 291.167,296.5 297.833,296.5 304.5,296.5C 304.167,209.332 304.501,122.332 305.5,35.5 Z"/></g>
<g><path style="opacity:1" fill="#445f5a" d="M 305.5,35.5 C 355.167,35.5 404.833,35.5 454.5,35.5C 405.336,36.4989 356.003,36.8322 306.5,36.5C 306.833,123.335 306.499,210.002 305.5,296.5C 305.5,209.5 305.5,122.5 305.5,35.5 Z"/></g>
<g><path style="opacity:1" fill="#7bcbb8" d="M 314.5,43.5 C 314.5,129.167 314.5,214.833 314.5,300.5C 383.471,301.49 452.471,301.823 521.5,301.5C 452.335,302.499 383.002,302.833 313.5,302.5C 313.167,215.998 313.501,129.665 314.5,43.5 Z"/></g>
<g><path style="opacity:1" fill="#64cbb3" d="M 314.5,43.5 C 362.515,43.2008 410.515,43.5342 458.5,44.5C 458.333,62.1698 458.5,79.8365 459,97.5C 459.191,99.7078 459.691,101.708 460.5,103.5C 481.076,103.173 501.576,103.507 522,104.5C 522.832,170.335 522.665,236.001 521.5,301.5C 452.471,301.823 383.471,301.49 314.5,300.5C 314.5,214.833 314.5,129.167 314.5,43.5 Z"/></g>
<g><path style="opacity:1" fill="#73beab" d="M 314.5,43.5 C 362.665,42.3351 410.998,42.1684 459.5,43C 460.493,63.0908 460.827,83.2575 460.5,103.5C 459.691,101.708 459.191,99.7078 459,97.5C 458.5,79.8365 458.333,62.1698 458.5,44.5C 410.515,43.5342 362.515,43.2008 314.5,43.5 Z"/></g>
<g><path style="opacity:1" fill="#66c9b1" d="M 467.5,57.5 C 468.239,57.369 468.906,57.5357 469.5,58C 482.196,71.0295 495.196,83.6962 508.5,96C 495.167,96.6667 481.833,96.6667 468.5,96C 467.511,83.2464 467.178,70.4131 467.5,57.5 Z"/></g>
<g><path style="opacity:1" fill="#121c1a" d="M 381.5,148.5 C 378.884,147.945 376.051,147.945 373,148.5C 370.705,148.547 368.871,149.213 367.5,150.5C 349.041,145.083 338.041,132.917 334.5,114C 335.649,107.522 336.649,101.022 337.5,94.5C 339.004,90.4691 340.504,86.4691 342,82.5C 343.8,80.683 345.966,79.5163 348.5,79C 347.209,76.9098 347.876,75.5764 350.5,75C 356.753,73.359 362.92,71.5257 369,69.5C 372.779,70.3457 376.612,70.5123 380.5,70C 395.114,74.6106 405.281,84.1106 411,98.5C 413.592,109.398 411.592,119.398 405,128.5C 402.167,132 399.333,135.5 396.5,139C 397.956,139.423 398.456,140.256 398,141.5C 395.92,143.123 393.754,144.623 391.5,146C 391.833,146.333 392.167,146.667 392.5,147C 389.571,147.777 386.737,147.61 384,146.5C 383.085,147.328 382.419,148.328 382,149.5C 381.601,149.272 381.435,148.938 381.5,148.5 Z"/></g>
<g><path style="opacity:1" fill="#5e9786" d="M 374.5,125.5 C 372.69,121.623 373.69,118.457 377.5,116C 375.953,115.667 374.62,116.167 373.5,117.5C 372.526,119.743 372.192,122.076 372.5,124.5C 371.5,124.5 370.5,124.5 369.5,124.5C 371.255,119.252 370.588,118.585 367.5,122.5C 367.351,121.448 367.517,120.448 368,119.5C 372.777,116.723 376.944,113.223 380.5,109C 382.833,108.333 385.167,108.333 387.5,109C 388.576,110.726 388.743,112.559 388,114.5C 386.028,115.305 384.528,116.639 383.5,118.5C 385.167,119.5 386.5,120.833 387.5,122.5C 386.132,123.594 384.965,123.26 384,121.5C 383.751,122.624 383.251,123.624 382.5,124.5C 381.937,122.291 380.604,120.791 378.5,120C 379.451,119.282 379.617,118.449 379,117.5C 377.488,118.257 376.154,119.257 375,120.5C 375.096,122.381 374.929,124.047 374.5,125.5 Z"/></g>
<g><path style="opacity:1" fill="#538c7c" d="M 360.5,102.5 C 359.993,103.859 358.993,104.859 357.5,105.5C 357.846,106.696 358.346,106.696 359,105.5C 359.48,107.133 360.313,108.466 361.5,109.5C 360.624,109.369 359.957,109.702 359.5,110.5C 361.02,112.662 362.02,114.995 362.5,117.5C 361.167,117.5 359.833,117.5 358.5,117.5C 358.421,116.07 358.754,114.736 359.5,113.5C 357.471,110.473 356.471,107.14 356.5,103.5C 357.959,103.567 359.292,103.234 360.5,102.5 Z"/></g>
<g><path style="opacity:1" fill="#61b9a2" d="M 385.5,102.5 C 386.301,104.042 386.634,105.708 386.5,107.5C 378.867,107.909 371.534,109.575 364.5,112.5C 364.5,110.833 364.5,109.167 364.5,107.5C 367.004,105.856 369.671,104.356 372.5,103C 376.821,102.501 381.154,102.334 385.5,102.5 Z"/></g>
<g><path style="opacity:1" fill="#246757" d="M 385.5,101.5 C 385.5,101.833 385.5,102.167 385.5,102.5C 381.154,102.334 376.821,102.501 372.5,103C 369.671,104.356 367.004,105.856 364.5,107.5C 370.193,100.782 377.193,98.7819 385.5,101.5 Z"/></g>
<g><path style="opacity:1" fill="#121615" d="M 369.5,85.5 C 376.967,84.3312 383.633,85.9979 389.5,90.5C 389.367,93.8957 388.367,94.2291 386.5,91.5C 384.477,93.1733 382.144,93.8399 379.5,93.5C 376.852,92.8379 374.185,92.1712 371.5,91.5C 367.506,94.8273 363.839,98.4939 360.5,102.5C 359.292,103.234 357.959,103.567 356.5,103.5C 355.574,108.334 355.574,113.334 356.5,118.5C 355.022,118.762 353.689,118.429 352.5,117.5C 351.39,112.889 351.223,108.222 352,103.5C 354.178,99.1447 356.344,94.8113 358.5,90.5C 361.785,88.0245 365.452,86.3579 369.5,85.5 Z"/></g>
<g><path style="opacity:1" fill="#64c8af" d="M 389.5,98.5 C 388.738,100.262 387.404,101.262 385.5,101.5C 377.193,98.7819 370.193,100.782 364.5,107.5C 363.222,107.782 362.222,108.449 361.5,109.5C 360.313,108.466 359.48,107.133 359,105.5C 358.346,106.696 357.846,106.696 357.5,105.5C 358.993,104.859 359.993,103.859 360.5,102.5C 364.483,101.683 367.483,99.516 369.5,96C 370.873,95.1251 372.373,94.6251 374,94.5C 379.425,95.4251 384.592,96.7585 389.5,98.5 Z"/></g>
<g><path style="opacity:1" fill="#57a08d" d="M 379.5,93.5 C 383.325,94.8422 387.325,96.0089 391.5,97C 390.956,97.7172 390.289,98.2172 389.5,98.5C 384.592,96.7585 379.425,95.4251 374,94.5C 372.373,94.6251 370.873,95.1251 369.5,96C 367.483,99.516 364.483,101.683 360.5,102.5C 363.839,98.4939 367.506,94.8273 371.5,91.5C 374.185,92.1712 376.852,92.8379 379.5,93.5 Z"/></g>
<g><path style="opacity:1" fill="#48655d" d="M 378.5,83.5 C 385.822,85.405 391.656,89.405 396,95.5C 396.982,96.7589 397.315,98.0922 397,99.5C 394.958,96.0595 392.458,93.0595 389.5,90.5C 383.633,85.9979 376.967,84.3312 369.5,85.5C 372.5,84.8333 375.5,84.1667 378.5,83.5 Z"/></g>
<g><path style="opacity:1" fill="#649587" d="M 387.5,81.5 C 392.008,83.4933 395.842,86.4933 399,90.5C 399.982,91.7589 400.315,93.0922 400,94.5C 395.767,89.0772 390.6,85.0772 384.5,82.5C 385.791,82.7373 386.791,82.404 387.5,81.5 Z"/></g>
<g><path style="opacity:1" fill="#376b61" d="M 369.5,81.5 C 372.5,82.1667 375.5,82.8333 378.5,83.5C 372.872,83.1781 367.372,83.8447 362,85.5C 360.278,85.3893 360.112,84.8893 361.5,84C 363.909,82.2932 366.575,81.4598 369.5,81.5 Z"/></g>
<g><path style="opacity:1" fill="#60c3ac" d="M 387.5,81.5 C 386.791,82.404 385.791,82.7373 384.5,82.5C 379.595,81.5546 374.595,81.2213 369.5,81.5C 366.575,81.4598 363.909,82.2932 361.5,84C 360.112,84.8893 360.278,85.3893 362,85.5C 367.372,83.8447 372.872,83.1781 378.5,83.5C 375.5,84.1667 372.5,84.8333 369.5,85.5C 365.452,86.3579 361.785,88.0245 358.5,90.5C 350.86,97.8796 348.36,106.88 351,117.5C 358.8,132.638 370.633,137.138 386.5,131C 394.374,125.639 399.708,118.472 402.5,109.5C 402.833,110.833 403.167,112.167 403.5,113.5C 402.352,117.108 401.852,120.775 402,124.5C 402.923,123.241 403.757,121.908 404.5,120.5C 404.161,127.114 401.161,132.614 395.5,137C 373.978,150.078 356.478,145.912 343,124.5C 336.631,105.1 342.131,90.2666 359.5,80C 369.055,76.5622 378.388,77.0622 387.5,81.5 Z"/></g>
<g><path style="opacity:1" fill="#143126" d="M 381.5,109.5 C 383.654,110.747 385.654,111.581 387.5,112C 386.022,113.478 384.522,114.978 383,116.5C 382.316,115.216 382.483,114.049 383.5,113C 379.309,113.969 378.642,112.802 381.5,109.5 Z"/></g>
<g><path style="opacity:1" fill="#285343" d="M 374.5,125.5 C 372.989,127.441 370.989,127.941 368.5,127C 367.62,125.644 367.286,124.144 367.5,122.5C 370.588,118.585 371.255,119.252 369.5,124.5C 370.5,124.5 371.5,124.5 372.5,124.5C 372.192,122.076 372.526,119.743 373.5,117.5C 374.62,116.167 375.953,115.667 377.5,116C 373.69,118.457 372.69,121.623 374.5,125.5 Z"/></g>
<g><path style="opacity:1" fill="#406c63" d="M 381.5,148.5 C 376.885,150.398 372.219,151.064 367.5,150.5C 368.871,149.213 370.705,148.547 373,148.5C 376.051,147.945 378.884,147.945 381.5,148.5 Z"/></g>
<g><path style="opacity:1" fill="#6dc2ac" d="M 432.5,179.5 C 430.075,176.954 427.075,175.454 423.5,175C 393.5,174.333 363.5,174.333 333.5,175C 324.386,177.056 321.386,182.556 324.5,191.5C 322.106,186.852 321.94,181.852 324,176.5C 326.106,174.709 328.606,174.042 331.5,174.5C 331.222,172.654 331.889,171.32 333.5,170.5C 363.685,172.15 394.018,173.15 424.5,173.5C 426.423,174.308 428.423,174.808 430.5,175C 431.167,176.333 432.167,177.333 433.5,178C 432.944,178.383 432.611,178.883 432.5,179.5 Z"/></g>
<g><path style="opacity:1" fill="#000302" d="M 432.5,179.5 C 435.926,186.494 434.259,191.994 427.5,196C 394.833,196.667 362.167,196.667 329.5,196C 327.938,194.366 326.271,192.866 324.5,191.5C 321.386,182.556 324.386,177.056 333.5,175C 363.5,174.333 393.5,174.333 423.5,175C 427.075,175.454 430.075,176.954 432.5,179.5 Z"/></g>
<g><path style="opacity:1" fill="#010302" d="M 457.5,233.5 C 454.652,234.772 451.652,235.605 448.5,236C 409.833,236.667 371.167,236.667 332.5,236C 330.807,235.153 329.14,234.32 327.5,233.5C 321.21,225.702 322.543,219.536 331.5,215C 351.5,214.833 371.5,214.667 391.5,214.5C 412.882,214.355 434.215,214.855 455.5,216C 462.838,220.884 463.505,226.717 457.5,233.5 Z"/></g>
<g><path style="opacity:1" fill="#6fc1ae" d="M 327.5,233.5 C 329.14,234.32 330.807,235.153 332.5,236C 371.167,236.667 409.833,236.667 448.5,236C 451.652,235.605 454.652,234.772 457.5,233.5C 456.274,235.876 454.274,237.376 451.5,238C 412.833,238.667 374.167,238.667 335.5,238C 333.048,237.71 330.715,237.044 328.5,236C 327.748,235.329 327.414,234.496 327.5,233.5 Z"/></g>
</svg>
